<mxfile host="app.diagrams.net" modified="2024-01-15T10:30:00.000Z" agent="5.0" etag="abc123" version="22.1.16" type="device">
  <diagram name="Elara Architecture" id="elara-arch">
    <mxGraphModel dx="1422" dy="794" grid="1" gridSize="10" guides="1" tooltips="1" connect="1" arrows="1" fold="1" page="1" pageScale="1" pageWidth="1169" pageHeight="827" math="0" shadow="0">
      <root>
        <mxCell id="0" />
        <mxCell id="1" parent="0" />
        
        <!-- Title -->
        <mxCell id="title" value="Elara Finance Dashboard - System Architecture" style="text;html=1;strokeColor=none;fillColor=none;align=center;verticalAlign=middle;whiteSpace=wrap;rounded=0;fontSize=20;fontStyle=1;" vertex="1" parent="1">
          <mxGeometry x="400" y="20" width="400" height="30" as="geometry" />
        </mxCell>
        
        <!-- Client Layer -->
        <mxCell id="client-layer" value="Client Layer" style="rounded=1;whiteSpace=wrap;html=1;fillColor=#e1d5e7;strokeColor=#9673a6;fontSize=14;fontStyle=1;" vertex="1" parent="1">
          <mxGeometry x="50" y="80" width="1050" height="60" as="geometry" />
        </mxCell>
        
        <mxCell id="web-browser" value="Web Browser&#xa;(SPA - Vanilla JS)" style="rounded=1;whiteSpace=wrap;html=1;fillColor=#dae8fc;strokeColor=#6c8ebf;" vertex="1" parent="1">
          <mxGeometry x="100" y="100" width="150" height="60" as="geometry" />
        </mxCell>
        
        <mxCell id="mobile-app" value="Mobile App&#xa;(Future)" style="rounded=1;whiteSpace=wrap;html=1;fillColor=#f8cecc;strokeColor=#b85450;" vertex="1" parent="1">
          <mxGeometry x="300" y="100" width="150" height="60" as="geometry" />
        </mxCell>
        
        <mxCell id="admin-panel" value="Admin Panel&#xa;(Role-based)" style="rounded=1;whiteSpace=wrap;html=1;fillColor=#fff2cc;strokeColor=#d6b656;" vertex="1" parent="1">
          <mxGeometry x="500" y="100" width="150" height="60" as="geometry" />
        </mxCell>
        
        <!-- Load Balancer -->
        <mxCell id="load-balancer" value="Load Balancer&#xa;(nginx)" style="rounded=1;whiteSpace=wrap;html=1;fillColor=#d5e8d4;strokeColor=#82b366;" vertex="1" parent="1">
          <mxGeometry x="450" y="200" width="200" height="60" as="geometry" />
        </mxCell>
        
        <!-- API Gateway -->
        <mxCell id="api-gateway" value="API Gateway&#xa;Express.js (Port 3000)" style="rounded=1;whiteSpace=wrap;html=1;fillColor=#ffe6cc;strokeColor=#d79b00;fontSize=12;fontStyle=1;" vertex="1" parent="1">
          <mxGeometry x="400" y="320" width="300" height="80" as="geometry" />
        </mxCell>
        
        <!-- Middleware -->
        <mxCell id="middleware" value="Middleware Layer" style="rounded=1;whiteSpace=wrap;html=1;fillColor=#f5f5f5;strokeColor=#666666;" vertex="1" parent="1">
          <mxGeometry x="100" y="450" width="900" height="40" as="geometry" />
        </mxCell>
        
        <mxCell id="auth-middleware" value="JWT Auth" style="rounded=1;whiteSpace=wrap;html=1;fillColor=#dae8fc;strokeColor=#6c8ebf;" vertex="1" parent="1">
          <mxGeometry x="120" y="460" width="80" height="30" as="geometry" />
        </mxCell>
        
        <mxCell id="audit-middleware" value="Audit Trail" style="rounded=1;whiteSpace=wrap;html=1;fillColor=#dae8fc;strokeColor=#6c8ebf;" vertex="1" parent="1">
          <mxGeometry x="220" y="460" width="80" height="30" as="geometry" />
        </mxCell>
        
        <mxCell id="rate-limit" value="Rate Limiting" style="rounded=1;whiteSpace=wrap;html=1;fillColor=#dae8fc;strokeColor=#6c8ebf;" vertex="1" parent="1">
          <mxGeometry x="320" y="460" width="80" height="30" as="geometry" />
        </mxCell>
        
        <mxCell id="security" value="Security Headers" style="rounded=1;whiteSpace=wrap;html=1;fillColor=#dae8fc;strokeColor=#6c8ebf;" vertex="1" parent="1">
          <mxGeometry x="420" y="460" width="80" height="30" as="geometry" />
        </mxCell>
        
        <mxCell id="cors" value="CORS" style="rounded=1;whiteSpace=wrap;html=1;fillColor=#dae8fc;strokeColor=#6c8ebf;" vertex="1" parent="1">
          <mxGeometry x="520" y="460" width="80" height="30" as="geometry" />
        </mxCell>
        
        <!-- Microservices -->
        <mxCell id="microservices" value="Microservices Layer" style="rounded=1;whiteSpace=wrap;html=1;fillColor=#e1d5e7;strokeColor=#9673a6;fontSize=14;fontStyle=1;" vertex="1" parent="1">
          <mxGeometry x="50" y="540" width="1050" height="40" as="geometry" />
        </mxCell>
        
        <mxCell id="python-upload" value="Python Upload Service&#xa;Flask (Port 5000)&#xa;Pandas Processing" style="rounded=1;whiteSpace=wrap;html=1;fillColor=#fff2cc;strokeColor=#d6b656;" vertex="1" parent="1">
          <mxGeometry x="100" y="600" width="200" height="80" as="geometry" />
        </mxCell>
        
        <mxCell id="db-service" value="Database Service&#xa;Flask (Port 5001)&#xa;High-Performance Insert" style="rounded=1;whiteSpace=wrap;html=1;fillColor=#fff2cc;strokeColor=#d6b656;" vertex="1" parent="1">
          <mxGeometry x="350" y="600" width="200" height="80" as="geometry" />
        </mxCell>
        
        <mxCell id="qbusiness" value="Amazon Q Business&#xa;AI Analytics&#xa;Natural Language" style="rounded=1;whiteSpace=wrap;html=1;fillColor=#f8cecc;strokeColor=#b85450;" vertex="1" parent="1">
          <mxGeometry x="600" y="600" width="200" height="80" as="geometry" />
        </mxCell>
        
        <!-- Database -->
        <mxCell id="database" value="MySQL Database&#xa;(Port 3306)" style="shape=cylinder3;whiteSpace=wrap;html=1;boundedLbl=1;backgroundOutline=1;size=15;fillColor=#d5e8d4;strokeColor=#82b366;fontSize=12;fontStyle=1;" vertex="1" parent="1">
          <mxGeometry x="450" y="720" width="200" height="80" as="geometry" />
        </mxCell>
        
        <!-- Connections -->
        <mxCell id="conn1" style="edgeStyle=orthogonalEdgeStyle;rounded=0;orthogonalLoop=1;jettySize=auto;html=1;" edge="1" parent="1" source="web-browser" target="load-balancer">
          <mxGeometry relative="1" as="geometry" />
        </mxCell>
        
        <mxCell id="conn2" style="edgeStyle=orthogonalEdgeStyle;rounded=0;orthogonalLoop=1;jettySize=auto;html=1;" edge="1" parent="1" source="load-balancer" target="api-gateway">
          <mxGeometry relative="1" as="geometry" />
        </mxCell>
        
        <mxCell id="conn3" style="edgeStyle=orthogonalEdgeStyle;rounded=0;orthogonalLoop=1;jettySize=auto;html=1;" edge="1" parent="1" source="api-gateway" target="python-upload">
          <mxGeometry relative="1" as="geometry" />
        </mxCell>
        
        <mxCell id="conn4" style="edgeStyle=orthogonalEdgeStyle;rounded=0;orthogonalLoop=1;jettySize=auto;html=1;" edge="1" parent="1" source="api-gateway" target="db-service">
          <mxGeometry relative="1" as="geometry" />
        </mxCell>
        
        <mxCell id="conn5" style="edgeStyle=orthogonalEdgeStyle;rounded=0;orthogonalLoop=1;jettySize=auto;html=1;" edge="1" parent="1" source="python-upload" target="database">
          <mxGeometry relative="1" as="geometry" />
        </mxCell>
        
        <mxCell id="conn6" style="edgeStyle=orthogonalEdgeStyle;rounded=0;orthogonalLoop=1;jettySize=auto;html=1;" edge="1" parent="1" source="db-service" target="database">
          <mxGeometry relative="1" as="geometry" />
        </mxCell>
        
        <mxCell id="conn7" style="edgeStyle=orthogonalEdgeStyle;rounded=0;orthogonalLoop=1;jettySize=auto;html=1;" edge="1" parent="1" source="api-gateway" target="database">
          <mxGeometry relative="1" as="geometry" />
        </mxCell>
        
      </root>
    </mxGraphModel>
  </diagram>
</mxfile>